{
  "accessors": [
    {
      "bufferView": 2,
      "componentType": 5126,
      "count": 65532,
      "max": [
        18.79400062561035,
        113.68119812011719,
        144.79469299316406
      ],
      "min": [
        -13.323399543762207,
        -176.36749267578125,
        57.7411994934082
      ],
      "type": "VEC3"
    },
    {
      "bufferView": 2,
      "byteOffset": 786384,
      "componentType": 5126,
      "count": 65532,
      "max": [
        0.9998972415924072,
        0.9999852180480957,
        0.9999176263809204
      ],
      "min": [
        -1.0,
        -0.999956488609314,
        -0.9999988079071045
      ],
      "type": "VEC3"
    },
    {
      "bufferView": 1,
      "componentType": 5126,
      "count": 65532,
      "max": [
        0.9980000257492065,
        0.9980000257492065
      ],
      "min": [
        0.11569999903440475,
        0.0020000000949949026
      ],
      "type": "VEC2"
    },
    {
      "bufferView": 0,
      "componentType": 5125,
      "count": 366183,
      "type": "SCALAR"
    },
    {
      "bufferView": 2,
      "byteOffset": 1572768,
      "componentType": 5126,
      "count": 65532,
      "max": [
        37.06399917602539,
        113.5208969116211,
        145.13059997558594
      ],
      "min": [
        -28.652099609375,
        -176.36749267578125,
        3.2344000339508057
      ],
      "type": "VEC3"
    },
    {
      "bufferView": 2,
      "byteOffset": 2359152,
      "componentType": 5126,
      "count": 65532,
      "max": [
        0.9999932050704956,
        0.9999171495437622,
        0.9999734163284302
      ],
      "min": [
        -0.9999488592147827,
        -0.9999722242355347,
        -0.9999829530715942
      ],
      "type": "VEC3"
    },
    {
      "bufferView": 1,
      "byteOffset": 524256,
      "componentType": 5126,
      "count": 65532,
      "max": [
        0.996399998664856,
        0.9969000220298767
      ],
      "min": [
        0.0020000000949949026,
        0.0020000000949949026
      ],
      "type": "VEC2"
    },
    {
      "bufferView": 0,
      "byteOffset": 1464732,
      "componentType": 5125,
      "count": 361413,
      "type": "SCALAR"
    },
    {
      "bufferView": 2,
      "byteOffset": 3145536,
      "componentType": 5126,
      "count": 20005,
      "max": [
        20.58099937438965,
        113.6332015991211,
        145.13059997558594
      ],
      "min": [
        3.3327999114990234,
        32.25400161743164,
        65.01280212402344
      ],
      "type": "VEC3"
    },
    {
      "bufferView": 2,
      "byteOffset": 3385596,
      "componentType": 5126,
      "count": 20005,
      "max": [
        0.999975323677063,
        0.9997637867927551,
        0.9999098777770996
      ],
      "min": [
        -0.9999891519546509,
        -0.999897837638855,
        -0.9999936819076538
      ],
      "type": "VEC3"
    },
    {
      "bufferView": 1,
      "byteOffset": 1048512,
      "componentType": 5126,
      "count": 20005,
      "max": [
        0.9976999759674072,
        0.9979000091552734
      ],
      "min": [
        0.19059999287128448,
        0.003700000001117587
      ],
      "type": "VEC2"
    },
    {
      "bufferView": 0,
      "byteOffset": 2910384,
      "componentType": 5125,
      "count": 102996,
      "type": "SCALAR"
    },
    {
      "bufferView": 2,
      "byteOffset": 3625656,
      "componentType": 5126,
      "count": 2143,
      "max": [
        35.45309829711914,
        42.6974983215332,
        66.05989837646484
      ],
      "min": [
        -27.350900650024414,
        -24.950899124145508,
        3.425100088119507
      ],
      "type": "VEC3"
    },
    {
      "bufferView": 2,
      "byteOffset": 3651372,
      "componentType": 5126,
      "count": 2143,
      "max": [
        0.9997503161430359,
        0.9921793937683105,
        0.9776628017425537
      ],
      "min": [
        -0.9997503161430359,
        -0.9952354431152344,
        -0.999951958656311
      ],
      "type": "VEC3"
    },
    {
      "bufferView": 1,
      "byteOffset": 1208552,
      "componentType": 5126,
      "count": 2143,
      "max": [
        1.0729999542236328,
        0.320499986410141
      ],
      "min": [
        -0.38100001215934753,
        0.00930000003427267
      ],
      "type": "VEC2"
    },
    {
      "bufferView": 0,
      "byteOffset": 3322368,
      "componentType": 5125,
      "count": 11232,
      "type": "SCALAR"
    },
    {
      "bufferView": 2,
      "byteOffset": 3677088,
      "componentType": 5126,
      "count": 9963,
      "max": [
        14.839699745178223,
        112.59629821777344,
        119.86289978027344
      ],
      "min": [
        -4.097300052642822,
        86.52459716796875,
        93.98100280761719
      ],
      "type": "VEC3"
    },
    {
      "bufferView": 2,
      "byteOffset": 3796644,
      "componentType": 5126,
      "count": 9963,
      "max": [
        0.9999704360961914,
        0.9994361996650696,
        0.99997478723526
      ],
      "min": [
        -0.9994569420814514,
        -0.9998316168785095,
        -0.9948837161064148
      ],
      "type": "VEC3"
    },
    {
      "bufferView": 1,
      "byteOffset": 1225696,
      "componentType": 5126,
      "count": 9963,
      "max": [
        1.1668000221252441,
        1.0529999732971191
      ],
      "min": [
        -0.47530001401901245,
        -0.13179999589920044
      ],
      "type": "VEC2"
    },
    {
      "bufferView": 0,
      "byteOffset": 3367296,
      "componentType": 5125,
      "count": 50688,
      "type": "SCALAR"
    },
    {
      "bufferView": 2,
      "byteOffset": 3916200,
      "componentType": 5126,
      "count": 4977,
      "max": [
        15.400300025939941,
        112.56559753417969,
        119.97209930419922
      ],
      "min": [
        -7.403800010681152,
        88.7876968383789,
        113.2593002319336
      ],
      "type": "VEC3"
    },
    {
      "bufferView": 2,
      "byteOffset": 3975924,
      "componentType": 5126,
      "count": 4977,
      "max": [
        0.999801754951477,
        0.9941664338111877,
        0.99997478723526
      ],
      "min": [
        -0.9999704360961914,
        -0.9998316168785095,
        -0.9888116121292114
      ],
      "type": "VEC3"
    },
    {
      "bufferView": 1,
      "byteOffset": 1305400,
      "componentType": 5126,
      "count": 4977,
      "max": [
        1.0896999835968018,
        1.0
      ],
      "min": [
        -0.289000004529953,
        -0.13179999589920044
      ],
      "type": "VEC2"
    },
    {
      "bufferView": 0,
      "byteOffset": 3570048,
      "componentType": 5125,
      "count": 25344,
      "type": "SCALAR"
    }
  ],
  "asset": {
    "extras": {
      "author": "ann55010970637 (https://sketchfab.com/ann55010970637)",
      "license": "CC-BY-4.0 (http://creativecommons.org/licenses/by/4.0/)",
      "source": "https://sketchfab.com/3d-models/t-rex-v3-db3b48ee5763472aafd7d5e6ab381572",
      "title": "T- Rex V3"
    },
    "generator": "Sketchfab-13.25.0",
    "version": "2.0"
  },
  "bufferViews": [
    {
      "buffer": 0,
      "byteLength": 3671424,
      "name": "floatBufferViews",
      "target": 34963
    },
    {
      "buffer": 0,
      "byteLength": 1345216,
      "byteOffset": 3671424,
      "byteStride": 8,
      "name": "floatBufferViews",
      "target": 34962
    },
    {
      "buffer": 0,
      "byteLength": 4035648,
      "byteOffset": 5016640,
      "byteStride": 12,
      "name": "floatBufferViews",
      "target": 34962
    }
  ],
  "buffers": [
    {
      "byteLength": 9052288,
      "uri": "scene.bin"
    }
  ],
  "images": [
    {
      "uri": "textures/wire_198225087_baseColor.jpeg"
    },
    {
      "uri": "textures/wire_224198087_baseColor.jpeg"
    },
    {
      "uri": "textures/wire_228214153_baseColor.jpeg"
    }
  ],
  "materials": [
    {
      "doubleSided": true,
      "name": "wire_198225087",
      "pbrMetallicRoughness": {
        "baseColorTexture": {
          "index": 0
        },
        "metallicFactor": 0.0,
        "roughnessFactor": 0.6
      }
    },
    {
      "doubleSided": true,
      "name": "wire_224198087",
      "pbrMetallicRoughness": {
        "baseColorTexture": {
          "index": 1
        },
        "metallicFactor": 0.0,
        "roughnessFactor": 0.6
      }
    },
    {
      "doubleSided": true,
      "name": "wire_228214153",
      "pbrMetallicRoughness": {
        "baseColorTexture": {
          "index": 2
        },
        "metallicFactor": 0.0,
        "roughnessFactor": 0.6
      }
    }
  ],
  "meshes": [
    {
      "name": "Object_0",
      "primitives": [
        {
          "attributes": {
            "NORMAL": 1,
            "POSITION": 0,
            "TEXCOORD_0": 2
          },
          "indices": 3,
          "material": 1,
          "mode": 4
        }
      ]
    },
    {
      "name": "Object_1",
      "primitives": [
        {
          "attributes": {
            "NORMAL": 5,
            "POSITION": 4,
            "TEXCOORD_0": 6
          },
          "indices": 7,
          "material": 1,
          "mode": 4
        }
      ]
    },
    {
      "name": "Object_2",
      "primitives": [
        {
          "attributes": {
            "NORMAL": 9,
            "POSITION": 8,
            "TEXCOORD_0": 10
          },
          "indices": 11,
          "material": 1,
          "mode": 4
        }
      ]
    },
    {
      "name": "Object_3",
      "primitives": [
        {
          "attributes": {
            "NORMAL": 13,
            "POSITION": 12,
            "TEXCOORD_0": 14
          },
          "indices": 15,
          "material": 0,
          "mode": 4
        }
      ]
    },
    {
      "name": "Object_4",
      "primitives": [
        {
          "attributes": {
            "NORMAL": 17,
            "POSITION": 16,
            "TEXCOORD_0": 18
          },
          "indices": 19,
          "material": 2,
          "mode": 4
        }
      ]
    },
    {
      "name": "Object_5",
      "primitives": [
        {
          "attributes": {
            "NORMAL": 21,
            "POSITION": 20,
            "TEXCOORD_0": 22
          },
          "indices": 23,
          "material": 2,
          "mode": 4
        }
      ]
    }
  ],
  "nodes": [
    {
      "children": [
        1
      ],
      "matrix": [
        1.0,
        0.0,
        0.0,
        0.0,
        0.0,
        2.220446049250313e-16,
        -1.0,
        0.0,
        0.0,
        1.0,
        2.220446049250313e-16,
        0.0,
        0.0,
        0.0,
        0.0,
        1.0
      ],
      "name": "Sketchfab_model"
    },
    {
      "children": [
        2,
        3,
        4,
        5,
        6,
        7
      ],
      "name": "T-Rex V3.obj.cleaner.materialmerger.gles"
    },
    {
      "mesh": 0,
      "name": "Object_2"
    },
    {
      "mesh": 1,
      "name": "Object_3"
    },
    {
      "mesh": 2,
      "name": "Object_4"
    },
    {
      "mesh": 3,
      "name": "Object_5"
    },
    {
      "mesh": 4,
      "name": "Object_6"
    },
    {
      "mesh": 5,
      "name": "Object_7"
    }
  ],
  "samplers": [
    {
      "magFilter": 9729,
      "minFilter": 9987,
      "wrapS": 10497,
      "wrapT": 10497
    }
  ],
  "scene": 0,
  "scenes": [
    {
      "name": "Sketchfab_Scene",
      "nodes": [
        0
      ]
    }
  ],
  "textures": [
    {
      "sampler": 0,
      "source": 0
    },
    {
      "sampler": 0,
      "source": 1
    },
    {
      "sampler": 0,
      "source": 2
    }
  ]
}
